<svg viewBox="0 0 32 32" xmlns="http://www.w3.org/2000/svg" xmlns:xlink="http://www.w3.org/1999/xlink" width="32.000000" height="32.000000" fill="none">
	<rect id="ic:baseline-telegram" width="32.000000" height="32.000000" x="0.000000" y="0.000000" fill="rgb(255,255,255)" fill-opacity="0" />
	<path id="Vector" d="M16.5 3C9.048 3 3 9.048 3 16.5C3 23.952 9.048 30 16.5 30C23.952 30 30 23.952 30 16.5C30 9.048 23.952 3 16.5 3ZM22.764 12.18C22.5615 14.313 21.684 19.497 21.2385 21.8865C21.0495 22.899 20.6715 23.2365 20.3205 23.277C19.5375 23.3445 18.9435 22.764 18.1875 22.2645C16.9995 21.4815 16.3245 20.9955 15.177 20.2395C13.8405 19.362 14.7045 18.876 15.474 18.093C15.6765 17.8905 19.1325 14.745 19.2 14.4615C19.2094 14.4186 19.2081 14.374 19.1964 14.3316C19.1846 14.2893 19.1627 14.2505 19.1325 14.2185C19.0515 14.151 18.9435 14.178 18.849 14.1915C18.7275 14.2185 16.8375 15.474 13.152 17.958C12.612 18.3225 12.126 18.5115 11.694 18.498C11.208 18.4845 10.29 18.228 9.6015 17.9985C8.751 17.7285 8.0895 17.58 8.1435 17.1075C8.1705 16.8645 8.508 16.6215 9.1425 16.365C13.0845 14.6505 15.7035 13.5165 17.013 12.9765C20.766 11.4105 21.5355 11.1405 22.0485 11.1405C22.1565 11.1405 22.413 11.1675 22.575 11.3025C22.71 11.4105 22.7505 11.559 22.764 11.667C22.7505 11.748 22.7775 11.991 22.764 12.18Z" fill="rgb(40,101,168)" fill-rule="nonzero" />
</svg>
