<svg viewBox="0 0 32 32" xmlns="http://www.w3.org/2000/svg" xmlns:xlink="http://www.w3.org/1999/xlink" width="32.000000" height="32.000000" fill="none">
	<rect id="basil:vk-solid" width="32.000000" height="32.000000" x="0.000000" y="0.000000" fill="rgb(255,255,255)" fill-opacity="0" />
	<path id="Vector" d="M28.8749 24.9986L25.8091 24.9986C24.6496 24.9986 24.3003 24.0389 22.222 21.9135C20.4056 20.1244 19.6385 19.902 19.179 19.902C18.5436 19.902 18.3702 20.0805 18.3702 20.9743L18.3702 23.7917C18.3702 24.5538 18.1284 25 16.1804 25C14.2905 24.8702 12.4578 24.2835 10.8333 23.2881C9.20879 22.2926 7.83891 20.917 6.83651 19.2745C4.45723 16.2465 2.80126 12.6934 2 8.89721C2 8.42764 2.17465 8.002 3.0506 8.002L6.11372 8.002C6.901 8.002 7.18447 8.36036 7.49347 9.18829C8.9807 13.6616 11.5185 17.5527 12.549 17.5527C12.9439 17.5527 13.1159 17.3742 13.1159 16.3678L13.1159 11.76C12.9856 9.65787 11.8934 9.48075 11.8934 8.72009C11.9072 8.51941 11.997 8.33214 12.1437 8.19806C12.2905 8.06398 12.4826 7.99364 12.6793 8.002L17.4943 8.002C18.1526 8.002 18.3702 8.33702 18.3702 9.14161L18.3702 15.3614C18.3702 16.0328 18.6524 16.2552 18.8512 16.2552C19.2462 16.2552 19.5498 16.0328 20.2739 15.2941C21.8255 13.3591 23.0936 11.2038 24.0384 8.89584C24.1346 8.61844 24.3172 8.38094 24.5582 8.21975C24.7991 8.05855 25.0852 7.98254 25.3724 8.00338L28.4369 8.00338C29.3558 8.00338 29.5506 8.47295 29.3558 9.14298C28.2409 11.6945 26.8618 14.1166 25.2421 16.3678C24.9116 16.8827 24.78 17.1504 25.2421 17.7546C25.5457 18.2241 26.6205 19.1413 27.342 20.0132C28.3926 21.0841 29.2645 22.3226 29.9241 23.6792C30.1874 24.5524 29.7495 24.9986 28.8749 24.9986Z" fill="rgb(40,101,168)" fill-rule="nonzero" />
</svg>
