<svg viewBox="0 0 32 32" xmlns="http://www.w3.org/2000/svg" xmlns:xlink="http://www.w3.org/1999/xlink" width="32.000000" height="32.000000" fill="none">
	<rect id="ic:outline-whatsapp" width="32.000000" height="32.000000" x="0.000000" y="0.000000" fill="rgb(255,255,255)" fill-opacity="0" />
	<path id="Vector" d="M26.0653 6.92856C24.8212 5.67861 23.3396 4.68752 21.7067 4.01306C20.0738 3.3386 18.3223 2.99424 16.5543 3.00007C9.14623 3.00007 3.10854 9.00756 3.10854 16.3785C3.10854 18.741 3.73266 21.036 4.8995 23.061L3 30L10.1231 28.137C12.0905 29.2035 14.302 29.7705 16.5543 29.7705C23.9623 29.7705 30 23.763 30 16.392C30 12.8145 28.6025 9.45306 26.0653 6.92856ZM16.5543 27.5025C14.5462 27.5025 12.5789 26.9625 10.8558 25.95L10.4487 25.707L6.21558 26.814L7.34171 22.71L7.07035 22.2915C5.95446 20.5191 5.36206 18.4701 5.3608 16.3785C5.3608 10.2496 10.3809 5.25457 16.5407 5.25457C19.5256 5.25457 22.3342 6.41556 24.4372 8.52156C25.4787 9.55277 26.304 10.7795 26.8653 12.1305C27.4266 13.4816 27.7127 14.9301 27.707 16.392C27.7342 22.521 22.7141 27.5025 16.5543 27.5025ZM22.6869 19.1865C22.3477 19.0245 20.6925 18.2145 20.394 18.093C20.0819 17.985 19.8648 17.931 19.6342 18.255C19.4035 18.5925 18.7658 19.3485 18.5759 19.5645C18.3859 19.794 18.1824 19.821 17.8432 19.6455C17.504 19.4835 16.4186 19.119 15.1432 17.985C14.1392 17.094 13.4744 16.0005 13.2709 15.663C13.0809 15.3255 13.2437 15.15 13.4201 14.9745C13.5693 14.826 13.7593 14.583 13.9221 14.394C14.0849 14.205 14.1528 14.0565 14.2613 13.8405C14.3698 13.611 14.3156 13.422 14.2342 13.26C14.1528 13.098 13.4744 11.4511 13.203 10.7761C12.9317 10.1281 12.6467 10.2091 12.4432 10.1956L11.792 10.1956C11.5613 10.1956 11.2085 10.2766 10.8965 10.6141C10.598 10.9516 9.72965 11.7615 9.72965 13.4085C9.72965 15.0555 10.9372 16.6485 11.1 16.8645C11.2628 17.094 13.4744 20.469 16.8392 21.9135C17.6397 22.2645 18.2638 22.467 18.7523 22.6155C19.5528 22.872 20.2854 22.8315 20.8688 22.7505C21.5201 22.656 22.8633 21.9405 23.1347 21.1575C23.4196 20.3745 23.4196 19.713 23.3246 19.5645C23.2296 19.416 23.0261 19.3485 22.6869 19.1865Z" fill="rgb(40,101,168)" fill-rule="nonzero" />
</svg>
